<svg xmlns="http://www.w3.org/2000/svg" viewBox="0 0 1167.2 103"><title>mozilla-logo</title><g id="Layer_2" data-name="Layer 2"><g id="Layer_1-2" data-name="Layer 1"><path d="M134.2,45.6c-6.6,0-10.7,4.9-10.7,13.4,0,7.8,3.6,13.8,10.6,13.8,6.7,0,11.1-5.4,11.1-14,0-9.1-4.9-13.2-11-13.2ZM310.8,68.3c0,2.9,1.4,5.2,5.3,5.2,4.6,0,9.5-3.3,9.8-10.8a47.6,47.6,0,0,0-6.5-.6c-4.6,0-8.6,1.3-8.6,6.2Z" style="fill:#fff"/><path d="M0,0V103H360V0ZM105,82H86V56.3c0-7.8-2.9-10.8-8-10.8-6.2,0-9,4.4-9,10.7V72h6V82H57V56.3c0-7.8-2.9-10.8-8-10.8-6.2,0-9,4.4-9,10.7V72h9V82H21V72h6V46H21V37H40v6.4a15.43,15.43,0,0,1,13.8-7.7c6.5,0,12.5,3.1,14.7,9.7,2.5-6,7.8-9.7,14.9-9.7,8.1,0,15.7,4.9,15.7,15.6V72h6V82Zm28.7.6c-13.9,0-23.5-8.5-23.5-22.9,0-13.2,8-24.1,24.2-24.1s24.1,10.9,24.1,23.5C158.5,73.5,148.1,82.6,133.7,82.6Zm72.6-.6H167l-1.3-7.2L190.5,46H176.4l-2,7.2-9.3-.7L166.7,37h39.5l1,6.7L182.2,72h14.6l2.1-7.1L209.1,66l-2.8,16ZM232,82H219V65h13Zm0-29H219V37h13Zm8.5,29,19.4-69h12.7L253.1,82H240.5Zm26.1,0,19.5-69h12.7L279.3,82Zm69.2.6c-6,0-9.3-3.5-9.9-9-2.6,4.6-7.2,9-14.5,9-6.5,0-13.9-3.5-13.9-12.9,0-11.1,10.7-13.7,21-13.7a56,56,0,0,1,7.4.4V55c0-4.6-.1-10.1-7.4-10.1a14,14,0,0,0-6.9,1.3l-1.5,5.1-10.2-1.1,1.8-10.4c7.9-3.2,12-4.1,19.4-4.1,9.7,0,18,5,18,15.3V70.6c0,2.6.9,3.5,3,3.5a6.15,6.15,0,0,0,1.8-.3l.1,6.8a19.43,19.43,0,0,1-8.2,2Z" style="fill:#fff"/><path d="M463.74,34.27,449,82.36h-5.9L429.12,41h-.34L415.31,82.36h-6L393.66,34.27h-4.72V27.62h19.79v6.65h-6.91l10.53,35.54h.42l11.79-35.54h-5.14V27.62h19.71v6.65h-5L446,70.15h.42l9.69-35.88h-7.41V27.62h19.62v6.65Z" style="fill:#fff"/><path d="M484.21,83.2c-10.86,0-18.28-6.74-18.28-19,0-11.71,6.65-20.21,17.77-20.21C494,44,500,51.28,500.13,60.38a24.49,24.49,0,0,1-.51,4.8H473.68c.34,7.66,4.21,12,11,12,5.81,0,8.59-3.2,9.6-7.16l6.15,1.26C499.62,77.73,493.9,83.2,484.21,83.2Zm-.67-33.52c-6.15,0-9.1,4.72-9.77,10.53h18.7C493,55.24,490.19,49.68,483.54,49.68Z" style="fill:#fff"/><path d="M526.8,83.2c-5.9,0-10.53-2.53-12.89-6.91-.08.84-.59,5.22-.76,6.06h-7.41A68.07,68.07,0,0,0,507,71.24v-41h-6.06V24.42h13.48V52.29c2.19-4.46,6.06-8.34,13.22-8.34,9.35,0,16.09,6.82,16.09,18.7C543.73,72.84,538.59,83.2,526.8,83.2ZM525.53,50c-6.82,0-11,6.15-11.12,11.71v4.21c0,6.32,4.46,11.2,10.7,11.2,7.33,0,10.87-6.15,10.87-13.9C536,54.57,531.51,50,525.53,50Z" style="fill:#fff"/><path d="M598.73,82.36V76.63h3.87V60.38c0-7.66-3.12-10.53-7.92-10.53-6.49,0-9.69,5.81-9.77,10.7V76.63H591v5.73H573.63V76.63h3.87V60.38c0-7.75-3.12-10.53-7.83-10.53-6.4,0-9.69,5.64-9.77,10.53V76.63h7v5.73H546.42V76.63h6.06V50.52h-6.15V44.71H559.9v6.65A13.31,13.31,0,0,1,572.11,44c5.73,0,10.44,2.78,12.13,8.76,2.27-5.14,6.65-8.76,13-8.76,7.07,0,12.72,4.3,12.72,13.9V76.63h6.15v5.73Z" style="fill:#fff"/><path d="M637.07,44c8.51,0,13.9,4.13,13.9,12.72V74.11c0,2.61.93,3.71,2.95,3.71a7.21,7.21,0,0,0,2.27-.42l.08,4.38a10.82,10.82,0,0,1-5.47,1.43c-4.55,0-7-2.95-7.24-7.58v-.08A14.42,14.42,0,0,1,631,83.2c-5.14,0-11.54-2.7-11.54-10.61,0-9.43,9.1-11.54,17.6-11.54a52.17,52.17,0,0,1,6.49.34V58.61c0-4.88-1.26-8.93-7.83-8.93a14.41,14.41,0,0,0-6.82,1.43l-1.43,6.15-6-.67,1.52-9A25.83,25.83,0,0,1,637.07,44Zm6.49,21.73c-2-.17-4.21-.42-6.49-.42-5.14,0-9.94,1.18-9.94,6.49,0,4,2.95,5.73,6.23,5.73a10.18,10.18,0,0,0,10.19-9.6Z" style="fill:#fff"/><path d="M683.21,82.36V76.63h5.05l-9.18-11.29h-6.4V76.63h4.88v5.73H659.29V76.63h6.06V30.23H659V24.42h13.64V60h6.65l7.75-9.43h-5.47V44.71h17.94v5.81h-5.22L684.81,62l12,14.65h4.72v5.73Z" style="fill:#fff"/><path d="M721.54,83.2c-10.86,0-18.28-6.74-18.28-19C703.27,52.46,709.92,44,721,44c10.27,0,16.34,7.33,16.42,16.42a24.49,24.49,0,0,1-.51,4.8H711c.34,7.66,4.21,12,11,12,5.81,0,8.59-3.2,9.6-7.16l6.15,1.26C737,77.73,731.23,83.2,721.54,83.2Zm-.67-33.52c-6.15,0-9.1,4.72-9.77,10.53h18.7C730.3,55.24,727.52,49.68,720.87,49.68Z" style="fill:#fff"/><path d="M769.9,46.14l1.52,10.53-5.81.67-1.43-6.48a7.35,7.35,0,0,0-2.95-.59c-3.79,0-6.74,3.45-6.74,8.67V76.63h8.09v5.73H741V76.63h6.06V50.52h-6.32V44.71H754v6.91c1.43-4.3,4.63-7.5,9.18-7.5A10.94,10.94,0,0,1,769.9,46.14Z" style="fill:#fff"/><path d="M828.78,51.28H851.6v6.57h-7.83a47.11,47.11,0,0,1-10.61,15.58,21.37,21.37,0,0,0,9.77,2.69,13.86,13.86,0,0,0,6.4-1.6L851,80.84a18.64,18.64,0,0,1-9.18,2.36,29,29,0,0,1-14.91-4.72,26.76,26.76,0,0,1-14.57,4.72c-8.17,0-16.42-4.55-16.42-13.81,0-7.33,5.31-10.95,10.87-14.06a32.09,32.09,0,0,1-3.29-13.14c0-8.51,5.39-15.41,15.58-15.41,8.34,0,14.06,4.55,14.06,11.71,0,8.17-8,12.3-17.77,17.1a50.27,50.27,0,0,0,13.14,15.08,27.88,27.88,0,0,0,7.24-12.8h-7ZM803.34,68.13c0,6.23,5.05,8.68,10.95,8.68A18.16,18.16,0,0,0,822.21,75a57.94,57.94,0,0,1-13.48-15.92C805.36,61.3,803.34,64.17,803.34,68.13Zm15.58-35.54c-5.48,0-7.83,4.38-7.83,8.93a26.3,26.3,0,0,0,2.36,10.28c7-3.79,12.13-7.66,12.13-13C825.58,36,823.81,32.58,818.92,32.58Z" style="fill:#fff"/><path d="M916,45.39l-1.68-11.12H901.89V75.71h9.43v6.65H885V75.71h9.18V34.27H881.67L880,45.39l-6.65-.59,1.6-17.18h46.15l1.69,17.18Z" style="fill:#fff"/><path d="M951.11,82.36V76.63h6.15V60.38c0-7.66-3.28-10.53-8.25-10.53-6.06,0-10,4.8-10.27,10.11V76.63h6.15v5.73H925.34V76.63h6.06V30.23h-6.06V24.42h13.39V51.2A14.16,14.16,0,0,1,951.62,44c7.33,0,13.05,4.3,13.05,13.9V76.63h6.06v5.73Z" style="fill:#fff"/><path d="M974.1,82.36V76.63h6.15V50.52h-6.4V44.71h13.81V76.63h6.06v5.73Zm5.64-55.17h7.67v8.68h-7.67Z" style="fill:#fff"/><path d="M1049.57,82.36V76.63h3.87V60.38c0-7.66-3.12-10.53-7.92-10.53-6.49,0-9.69,5.81-9.77,10.7V76.63h6.06v5.73h-17.35V76.63h3.87V60.38c0-7.75-3.12-10.53-7.83-10.53-6.4,0-9.69,5.64-9.77,10.53V76.63h7v5.73H997.26V76.63h6.06V50.52h-6.15V44.71h13.56v6.65A13.31,13.31,0,0,1,1023,44c5.73,0,10.44,2.78,12.13,8.76,2.27-5.14,6.65-8.76,13-8.76,7.07,0,12.72,4.3,12.72,13.9V76.63h6.15v5.73Z" style="fill:#fff"/><path d="M1092.27,83.2c-5.9,0-10.53-2.53-12.89-6.91-.08.84-.59,5.22-.76,6.06h-7.41a68.07,68.07,0,0,0,1.26-11.12v-41h-6.06V24.42h13.48V52.29c2.19-4.46,6.06-8.34,13.22-8.34,9.35,0,16.09,6.82,16.09,18.7C1109.2,72.84,1104.06,83.2,1092.27,83.2ZM1091,50c-6.82,0-11,6.15-11.12,11.71v4.21c0,6.32,4.46,11.2,10.7,11.2,7.33,0,10.87-6.15,10.87-13.9C1101.45,54.57,1097,50,1091,50Z" style="fill:#fff"/><path d="M1111.1,82.36V76.63h6.06V30.23h-6.32V24.42h13.73V76.63h6.06v5.73Z" style="fill:#fff"/><path d="M1150.95,83.2c-10.86,0-18.28-6.74-18.28-19,0-11.71,6.65-20.21,17.77-20.21,10.27,0,16.34,7.33,16.42,16.42a24.49,24.49,0,0,1-.51,4.8h-25.94c.34,7.66,4.21,12,11,12,5.81,0,8.59-3.2,9.6-7.16l6.15,1.26C1166.36,77.73,1160.63,83.2,1150.95,83.2Zm-.67-33.52c-6.15,0-9.1,4.72-9.77,10.53h18.7C1159.71,55.24,1156.93,49.68,1150.27,49.68Z" style="fill:#fff"/></g></g></svg>