<?xml version="1.0" encoding="utf-8"?>
<!-- Generator: Adobe Illustrator 16.0.0, SVG Export Plug-In . SVG Version: 6.00 Build 0)  -->
<!DOCTYPE svg PUBLIC "-//W3C//DTD SVG 1.1//EN" "http://www.w3.org/Graphics/SVG/1.1/DTD/svg11.dtd">
<svg version="1.1" id="Layer_1" xmlns="http://www.w3.org/2000/svg" xmlns:xlink="http://www.w3.org/1999/xlink" x="0px" y="0px"
	 width="848px" height="162px" viewBox="0 0 848 162" enable-background="new 0 0 848 162" xml:space="preserve">
<g>
	<path fill="#FFFFFF" d="M163.423,76.074c-0.059-0.977-0.134-1.805-0.248-2.767c-1.34-2.325-4.653-3.685-8.001-3.341
		c-5.919,0.606-11.219,4.109-16.073,7.509v22.24c5.076-5.165,10.499-10.483,14.21-14.281c4.259-4.362,8.914-8.745,9.089-8.92
		C162.704,76.21,163.102,76.035,163.423,76.074z"/>
	<path fill="#FFFFFF" d="M163.458,77.697c-0.006-0.142,0.015-0.388,0.009-0.528c-0.188-0.06-0.41,0.12-0.577,0.286l-2.563,2.543
		c0.333,0.061,0.358,0.17,0.611,0.284L163.458,77.697z"/>
	<path fill="#FFFFFF" d="M155.916,84.364c-0.229,0.229-0.255,0.545-0.085,0.681c0.17,0.135,0.435-0.023,0.663-0.254l2.994-2.91
		c-0.204,0.103-0.307,0.103-0.557,0.119c-0.151,0.01-0.416-0.024-0.533-0.103L155.916,84.364z"/>
	<path fill="#FFFFFF" d="M163.542,79.109l-1.849,1.933c1.5,1.586,0.398,5.898,1.141,6.951c0.461-2.786,0.713-5.641,0.713-8.56
		C163.547,79.38,163.542,79.168,163.542,79.109z"/>
	<path fill="#FFFFFF" d="M161.419,87.016c-0.084-1.581,0.388-3.67-0.586-5.089c-1.448,1.48-5.262,5.271-7.839,7.772
		c-10.338,10.032-26.048,25.725-38.097,37.295c-1.511,1.45-3.429,3.304-4.531,4.538c0.503,0.014,0.604-0.025,1.108-0.025
		c25.126,0,46.167-17.979,51.064-41.653C161.881,89.317,161.485,88.236,161.419,87.016z"/>
	<path fill="#FFFFFF" d="M95.81,70.356v23.715c3.681,0.489,7.427,0.212,11.134-0.79V73.665c0-5.293-0.768-6.532-3.858-6.532
		C101.032,67.133,98.202,68.188,95.81,70.356z"/>
	<path fill="#FFFFFF" d="M112.992,126.722c7.026-7.281,16.374-16.856,24.81-25.441h-9.485V84.645
		c-3.457,2.278-7.09,4.521-10.864,6.491v10.145h-10.509v-6.399c-3.153,0.814-6.37,1.197-9.636,0.954
		c-0.504-0.037-1.002-0.095-1.498-0.163v5.608H84.96V91.254c-6.309-4.688-10.029-11.634-8.675-21.033
		c0.724-5.012,2.62-10.472,6.859-13.802c3.557-2.794,8.334-1.15,10.267,1.685c0.658,0.967,1.066,2.156,1.479,4.306
		c2.891-2.819,6.463-4.306,10.345-4.306c3.514,0,6.403,1.141,8.634,3.467c0.594,0.587,1.173,1.34,1.679,2.08
		c3.885-3.979,7.354-5.547,12.01-5.547c3.317,0,6.469,0.99,8.388,2.641c2.389,2.07,3.156,4.564,3.156,10.365v4.56
		c1.496-0.989,3.005-1.957,4.535-2.888c4.425-2.688,10.367-5.246,15.664-3.862c1.469,0.385,2.633,1.04,3.516,1.855
		c-4.126-24.634-25.534-43.411-51.341-43.411c-28.759,0-52.071,23.312-52.071,52.07c0,27.828,21.497,50.543,48.963,51.985
		C109.754,129.942,111.297,128.479,112.992,126.722z"/>
	<path fill="#FFFFFF" d="M81.874,59.807c-2.486,2.842-3.795,7.544-4.149,11.176c-0.708,7.281,1.296,13.712,7.235,18.375V71.681
		c0-6.128-0.428-8.771-1.585-10.855c0,0,7.609-2.011,8.321-2.204c-0.867-1.088-2.932-2.366-5.069-2.091
		C85.005,56.738,83.407,58.055,81.874,59.807z"/>
	<path fill="#FFFFFF" d="M124.834,67.211c-2.08,0-4.99,1.414-7.382,3.563v18.682c3.17-1.64,6.214-3.487,9.043-5.306
		c0.609-0.393,1.216-0.79,1.821-1.191v-9.691C128.316,68.188,127.724,67.211,124.834,67.211z"/>
</g>
<g>
	<path fill="#FFFFFF" d="M488.505,101.468h-5.528l-9.709-32.217c-0.461-1.425-0.976-3.222-1.545-5.397
		c-0.572-2.168-0.867-3.476-0.891-3.913c-0.479,2.896-1.25,6.066-2.303,9.512l-9.412,32.016h-5.527l-12.799-48.109h5.923l7.6,29.713
		c1.053,4.17,1.823,7.944,2.304,11.32c0.592-4.012,1.471-7.94,2.632-11.777l8.622-29.256h5.923l9.052,29.52
		c1.053,3.398,1.939,7.239,2.663,11.514c0.418-3.113,1.208-6.907,2.369-11.383l7.568-29.65h5.923L488.505,101.468z"/>
	<path fill="#FFFFFF" d="M522.646,102.126c-5.33,0-9.539-1.622-12.62-4.87c-3.082-3.248-4.623-7.754-4.623-13.526
		c0-5.811,1.429-10.43,4.294-13.852c2.86-3.423,6.709-5.134,11.532-5.134c4.522,0,8.095,1.486,10.728,4.46
		c2.633,2.973,3.949,6.891,3.949,11.762v3.457h-24.843c0.108,4.234,1.177,7.448,3.206,9.643c2.032,2.191,4.889,3.291,8.574,3.291
		c3.883,0,7.72-0.812,11.518-2.438v4.87c-1.932,0.836-3.759,1.432-5.481,1.796C527.16,101.944,525.082,102.126,522.646,102.126z
		 M521.164,69.32c-2.896,0-5.203,0.94-6.926,2.826c-1.723,1.889-2.737,4.498-3.043,7.835h18.854c0-3.445-0.767-6.085-2.304-7.916
		C526.212,70.233,524.018,69.32,521.164,69.32z"/>
	<path fill="#FFFFFF" d="M561.329,64.81c4.739,0,8.417,1.619,11.042,4.855c2.62,3.236,3.929,7.816,3.929,13.739
		s-1.32,10.522-3.964,13.802c-2.645,3.278-6.314,4.92-11.007,4.92c-2.35,0-4.49-0.434-6.434-1.301
		c-1.94-0.867-3.569-2.199-4.886-3.995h-0.395l-1.154,4.638h-3.914V50.266h5.463v12.438c0,2.787-0.09,5.288-0.264,7.503h0.264
		C552.553,66.61,556.328,64.81,561.329,64.81z M560.539,69.382c-3.731,0-6.418,1.072-8.063,3.21
		c-1.646,2.141-2.466,5.741-2.466,10.812c0,5.063,0.844,8.691,2.531,10.874c1.692,2.184,4.398,3.271,8.13,3.271
		c3.356,0,5.857-1.219,7.503-3.666c1.646-2.446,2.466-5.962,2.466-10.549c0-4.692-0.82-8.192-2.466-10.496
		C566.528,70.536,563.981,69.382,560.539,69.382z"/>
	<path fill="#FFFFFF" d="M631.142,101.468v-23.46c0-2.877-0.615-5.033-1.843-6.47c-1.23-1.436-3.14-2.156-5.726-2.156
		c-3.403,0-5.911,0.979-7.538,2.931c-1.621,1.951-2.435,4.96-2.435,9.017v20.139h-5.463v-23.46c0-2.877-0.611-5.033-1.843-6.47
		c-1.227-1.436-3.146-2.156-5.756-2.156c-3.423,0-5.932,1.026-7.522,3.078c-1.587,2.052-2.385,5.416-2.385,10.085v18.923h-5.463
		V65.402h4.444l0.887,4.937h0.264c1.033-1.754,2.485-3.125,4.359-4.115c1.877-0.984,3.979-1.479,6.302-1.479
		c5.641,0,9.326,2.04,11.057,6.12h0.264c1.076-1.885,2.632-3.379,4.673-4.475c2.04-1.096,4.367-1.646,6.976-1.646
		c4.081,0,7.136,1.05,9.164,3.144c2.032,2.095,3.047,5.443,3.047,10.05v23.53H631.142z"/>
	<path fill="#FFFFFF" d="M669.359,101.468l-1.084-5.133h-0.263c-1.8,2.261-3.593,3.789-5.382,4.591
		c-1.788,0.802-4.018,1.2-6.697,1.2c-3.573,0-6.376-0.921-8.408-2.764c-2.028-1.843-3.043-4.464-3.043-7.867
		c0-7.281,5.826-11.099,17.476-11.451l6.12-0.193v-2.238c0-2.834-0.611-4.92-1.827-6.271c-1.22-1.347-3.163-2.021-5.842-2.021
		c-3.004,0-6.403,0.921-10.201,2.764l-1.677-4.181c1.777-0.964,3.725-1.723,5.839-2.269c2.117-0.55,4.243-0.825,6.368-0.825
		c4.301,0,7.487,0.957,9.559,2.861c2.075,1.912,3.112,4.971,3.112,9.183v24.614H669.359z M657.021,97.62
		c3.399,0,6.07-0.934,8.01-2.799c1.943-1.866,2.916-4.476,2.916-7.832v-3.26l-5.463,0.232c-4.344,0.154-7.476,0.828-9.396,2.024
		c-1.92,1.196-2.88,3.055-2.88,5.579c0,1.974,0.601,3.477,1.792,4.506C653.197,97.101,654.869,97.62,657.021,97.62z"/>
	<path fill="#FFFFFF" d="M689.387,83.009c0.94-1.339,2.381-3.097,4.309-5.265l11.648-12.342h6.484l-14.61,15.369l15.629,20.696
		h-6.612l-12.736-17.045l-4.111,3.554v13.491h-5.396V50.266h5.396v27.146c0,1.208-0.09,3.074-0.264,5.598H689.387z"/>
	<path fill="#FFFFFF" d="M733.927,102.126c-5.331,0-9.539-1.622-12.621-4.87c-3.081-3.248-4.622-7.754-4.622-13.526
		c0-5.811,1.428-10.43,4.293-13.852c2.861-3.423,6.709-5.134,11.533-5.134c4.521,0,8.095,1.486,10.728,4.46
		c2.632,2.973,3.948,6.891,3.948,11.762v3.457h-24.842c0.107,4.234,1.177,7.448,3.205,9.643c2.032,2.191,4.89,3.291,8.575,3.291
		c3.883,0,7.72-0.812,11.517-2.438v4.87c-1.932,0.836-3.759,1.432-5.481,1.796C738.44,101.944,736.361,102.126,733.927,102.126z
		 M732.443,69.32c-2.896,0-5.203,0.94-6.926,2.826c-1.723,1.889-2.736,4.498-3.043,7.835h18.854c0-3.445-0.766-6.085-2.303-7.916
		C737.492,70.233,735.297,69.32,732.443,69.32z"/>
	<path fill="#FFFFFF" d="M772.28,64.744c1.599,0,3.039,0.132,4.309,0.396l-0.755,5.067c-1.494-0.329-2.811-0.492-3.949-0.492
		c-2.919,0-5.412,1.185-7.486,3.554c-2.072,2.369-3.109,5.319-3.109,8.851v19.349h-5.463V65.402h4.507l0.627,6.682h0.264
		c1.335-2.35,2.95-4.157,4.835-5.431C767.948,65.379,770.02,64.744,772.28,64.744z"/>
</g>
<g>
	<path fill="#FFFFFF" d="M199.504,59.979c0.705,1.084,1.015,2.052,1.409,4.092c2.741-2.679,6.132-4.092,9.817-4.092
		c3.342,0,6.086,1.084,8.2,3.287c0.565,0.562,1.118,1.277,1.595,1.981c3.693-3.782,6.988-5.269,11.413-5.269
		c3.144,0,6.14,0.94,7.959,2.505c2.269,1.971,2.997,4.336,2.997,9.849v28.652h-10.24V74.376c0-4.819-0.562-5.749-3.306-5.749
		c-1.979,0-4.735,1.344-7.012,3.384v28.974h-9.979V74.756c0-5.025-0.729-6.202-3.663-6.202c-1.951,0-4.638,1.003-6.906,3.062v29.368
		h-10.306v-28.11c0-5.822-0.41-8.331-1.51-10.31L199.504,59.979z"/>
	<path fill="#FFFFFF" d="M280.57,65.952c3.225,3.778,4.661,8.191,4.661,14.711c0,6.934-1.587,11.664-5.056,15.59
		c-3.059,3.461-7.081,5.595-13.291,5.595c-10.952,0-18.099-8.188-18.099-20.859c0-12.679,7.225-21.095,18.099-21.095
		C272.626,59.894,277.117,61.86,280.57,65.952z M261.608,71.771c-0.72,2.133-1.1,4.967-1.1,8.989c0,4.626,0.469,8.11,1.336,10.151
		c0.952,2.198,3.325,3.302,5.347,3.302c4.567,0,6.526-4.092,6.526-13.615c0-5.432-0.712-8.981-2.121-10.794
		c-1.015-1.335-2.663-2.125-4.553-2.125C264.512,67.679,262.468,69.243,261.608,71.771z"/>
	<path fill="#FFFFFF" d="M319.16,60.679v7.24l-17.801,25.74h18.49l-2.517,7.325h-29.667v-6.531l18.951-26.372H289.25v-7.402H319.16z
		"/>
	<path fill="#FFFFFF" d="M336.995,49.584c0,3.62-2.884,6.52-6.53,6.52c-3.523,0-6.431-2.899-6.431-6.52s3-6.535,6.608-6.535
		C334.181,43.049,336.995,45.964,336.995,49.584z M335.757,59.73v41.254h-10.546V61.392L335.757,59.73z"/>
	<path fill="#FFFFFF" d="M354.963,53.204v31.404c0,6.945,0.077,7.874,0.712,8.974c0.41,0.712,1.262,1.096,2.129,1.096
		c0.392,0,0.612,0,1.185-0.144l1.797,6.295c-1.797,0.697-4.003,1.092-6.287,1.092c-4.499,0-8.114-2.113-9.369-5.497
		c-0.797-2.044-0.96-3.314-0.96-9.06v-30.08c0-5.27-0.14-8.486-0.542-12.121l10.793-2.443
		C354.8,44.919,354.963,47.528,354.963,53.204z"/>
	<path fill="#FFFFFF" d="M376.836,53.204v31.404c0,6.945,0.093,7.874,0.743,8.974c0.364,0.712,1.224,1.096,2.106,1.096
		c0.391,0,0.635,0,1.191-0.144l1.801,6.295c-1.801,0.697-4.015,1.092-6.307,1.092c-4.486,0-8.114-2.113-9.365-5.497
		c-0.809-2.044-0.94-3.314-0.94-9.06v-30.08c0-5.27-0.163-8.486-0.558-12.121l10.763-2.443
		C376.704,44.919,376.836,47.528,376.836,53.204z"/>
	<path fill="#FFFFFF" d="M393.382,62.174c3.934-1.649,7.294-2.358,11.011-2.358c6.782,0,11.42,2.51,13.008,7.004
		c0.525,1.649,0.766,2.911,0.716,7.247l-0.252,13.53c0,0.24,0,0.484,0,0.709c0,4.332,0.712,5.988,3.794,8.262l-5.59,6.473
		c-2.463-1.034-4.669-2.85-5.691-4.886c-0.771,0.79-1.645,1.56-2.442,2.117c-1.959,1.421-4.809,2.215-8.118,2.215
		c-8.967,0-13.852-4.576-13.852-12.59c0-9.462,6.554-13.875,19.372-13.875c0.774,0,1.494,0,2.369,0.085v-1.645
		c0-4.491-0.875-5.993-4.754-5.993c-3.341,0-7.31,1.649-11.63,4.567l-4.494-7.561C388.973,64.137,390.544,63.354,393.382,62.174z
		 M407.063,83.351c-7.294,0-9.853,1.331-9.853,6.151c0,3.136,1.986,5.261,4.672,5.261c1.951,0,3.941-1.029,5.49-2.752l0.178-8.66
		H407.063z"/>
</g>
</svg>
